<svg xmlns="http://www.w3.org/2000/svg" viewBox="0 0 90 90"><defs><style>.cls-1{fill:#073349;}.cls-2{fill:#f94bc3;}.cls-3{fill:#fe7dd1;}.cls-4{opacity:0.1;}.cls-5{fill:#349dd1;}</style></defs><title>venus</title><g id="venus"><g id="venus-2" data-name="venus"><circle id="back" class="cls-1" cx="45" cy="45" r="42.5"/><g id="venus-3" data-name="venus"><circle class="cls-2" cx="45" cy="45" r="23.61"/><path class="cls-3" d="M44.86,34,66.73,36a28.37,28.37,0,0,0-4.25-6.83L44.79,32A1,1,0,0,0,44.86,34Z"/><path class="cls-3" d="M40.59,58.86c6.62.5,15.21,1.15,22.15,1.7A23.61,23.61,0,0,0,66.83,54L40.56,56.92A1,1,0,0,0,40.59,58.86Z"/><path class="cls-3" d="M41.92,44.09C36,43.18,28,42,21.72,41a23.44,23.44,0,0,0,0,7.87l20.16-2.52A1.16,1.16,0,0,0,41.92,44.09Z"/><path class="cls-4" d="M45,21.39c-.69,0-1.36,0-2,.09,12.09,1,19.72,11.16,19.72,23.52S55.05,67.49,43,68.52c.67.06,1.35.09,2,.09a23.61,23.61,0,0,0,0-47.23Z"/></g><g id="stars"><circle class="cls-5" cx="66.6" cy="71.82" r="1"/><circle class="cls-5" cx="19.32" cy="65.85" r="1"/><circle class="cls-5" cx="73.06" cy="59.87" r="1"/><circle class="cls-5" cx="70.07" cy="20.07" r="1"/><circle class="cls-5" cx="16.94" cy="33.13" r="1"/><path class="cls-5" d="M32,70.82a1,1,0,1,0,1,1,1,1,0,0,0-1-1"/></g></g></g></svg>