<svg xmlns="http://www.w3.org/2000/svg" viewBox="0 0 90 90"><defs><style>.cls-1{fill:#073349;}.cls-2{fill:#089992;}.cls-3{fill:#09b2a5;}.cls-4{fill:#18456d;}</style></defs><title>alien</title><g id="alien"><g id="alien-2" data-name="alien"><circle id="back" class="cls-1" cx="45" cy="45" r="42.5"/><g id="alien-3" data-name="alien"><path class="cls-2" d="M45,68.61C57.13,68.61,53.63,58,64.22,45S54.09,21.39,45,21.39"/><path class="cls-3" d="M45,21.39C35.9,21.39,15.19,32,25.78,45S32.86,68.61,45,68.61"/><path class="cls-4" d="M27.38,37.46A14,14,0,0,1,42.65,47.54C37.32,50.5,27.75,47,27.38,37.46Z"/><path class="cls-1" d="M27.56,37.43l-.18,0c.37,9.56,9.93,13,15.27,10.08-.17-.52-.36-1-.56-1.49C37,48.32,28.9,45.36,27.56,37.43Z"/><path class="cls-4" d="M62.62,37.46A14,14,0,0,0,47.35,47.54C52.68,50.5,62.25,47,62.62,37.46Z"/><path class="cls-1" d="M47.91,46c-.2.47-.39,1-.56,1.49,5.34,3,14.9-.52,15.27-10.08l-.18,0C61.1,45.36,53,48.32,47.91,46Z"/></g></g></g></svg>