<svg xmlns="http://www.w3.org/2000/svg" viewBox="0 0 90 90"><defs><style>.cls-1{fill:#073349;}.cls-2{fill:#bc350c;}.cls-3{fill:#ea5807;}.cls-4{fill:#04727a;}.cls-5{fill:#349dd1;}.cls-6{fill:#bfd7e2;}.cls-7{fill:#d7ebf4;}.cls-8{fill:#aac7d1;}.cls-9{fill:#1b5a89;}</style></defs><title>satelite</title><g id="satelite"><g id="satelite-2" data-name="satelite"><circle id="back" class="cls-1" cx="45" cy="45" r="42.5"/><g id="satelite-3" data-name="satelite"><path class="cls-2" d="M49.57,51h0l-1.7-1.7A.78.78,0,0,1,49,48.2h0l1.7,1.7a.78.78,0,0,1-1.1,1.1Z"/><path class="cls-3" d="M49.57,56.11a.78.78,0,0,1-.23-.55V50.45a.78.78,0,0,1,1.56,0v5.11a.78.78,0,0,1-1.33.55Z"/><path class="cls-3" d="M49.57,51a.78.78,0,0,1,.55-1.33h5.11a.78.78,0,1,1,0,1.56H50.12A.78.78,0,0,1,49.57,51Z"/><rect class="cls-4" x="46.12" y="50.64" width="24.07" height="15.05" rx="0.97" ry="0.97" transform="translate(-24.09 58.15) rotate(-44.99)"/><path class="cls-5" d="M53.73,71.86l-9.27-9.27a1.75,1.75,0,0,1,0-2.47L60.11,44.46a1.75,1.75,0,0,1,2.47,0l9.27,9.27a1.75,1.75,0,0,1,0,2.47L56.2,71.86A1.75,1.75,0,0,1,53.73,71.86Zm7.75-26.29a.19.19,0,0,0-.27,0L45.57,61.22a.19.19,0,0,0,0,.27l9.27,9.27a.19.19,0,0,0,.27,0L70.75,55.1a.19.19,0,0,0,0-.27Zm9.82,10.09h0Z"/><path class="cls-5" d="M49.45,56.23a.78.78,0,0,1,1.1-1.1L61.19,65.76h0a.78.78,0,0,1-1.1,1.1L49.45,56.23Z"/><path class="cls-5" d="M65.76,61.2,55.12,50.56a.78.78,0,0,1,1.1-1.1L66.87,60.09a.78.78,0,0,1-1.1,1.1Z"/><path class="cls-5" d="M49.2,67.12a.78.78,0,0,1,0-1.1L65.68,49.53a.78.78,0,1,1,1.1,1.1L50.31,67.12A.78.78,0,0,1,49.2,67.12Z"/><path class="cls-2" d="M39,40.43a.78.78,0,0,1,1.1-1.1L41.8,41h0a.78.78,0,0,1-1.1,1.1L39,40.43Z"/><path class="cls-3" d="M33.89,40.43a.78.78,0,0,1,.55-1.33h5.11a.78.78,0,0,1,0,1.56H34.44A.78.78,0,0,1,33.89,40.43Z"/><path class="cls-3" d="M39,40.43a.78.78,0,0,1-.23-.55V34.77a.78.78,0,1,1,1.56,0v5.11a.78.78,0,0,1-1.33.55Z"/><rect class="cls-4" x="19.8" y="24.32" width="24.07" height="15.05" rx="0.97" ry="0.97" transform="translate(-13.19 31.84) rotate(-45.01)"/><path class="cls-5" d="M18.14,36.27a1.75,1.75,0,0,1,0-2.47L33.79,18.14a1.75,1.75,0,0,1,2.47,0l9.27,9.27a1.75,1.75,0,0,1,0,2.47L29.88,45.54a1.75,1.75,0,0,1-2.47,0Zm16.75-17L19.25,34.9a.19.19,0,0,0,0,.27l9.27,9.27a.19.19,0,0,0,.27,0L44.43,28.78a.19.19,0,0,0,0-.27l-9.27-9.27a.19.19,0,0,0-.27,0Z"/><path class="cls-5" d="M33.77,40.55h0L23.13,29.91a.78.78,0,0,1,1.1-1.1h0L34.87,39.45a.78.78,0,0,1-1.1,1.1Z"/><path class="cls-5" d="M39.44,34.88,28.8,24.24a.78.78,0,0,1,1.1-1.1L40.55,33.77a.78.78,0,0,1-1.1,1.1Z"/><path class="cls-5" d="M22.88,40.8h0a.78.78,0,0,1,0-1.1L39.36,23.22a.78.78,0,0,1,1.1,0h0a.78.78,0,0,1,0,1.1L24,40.8A.78.78,0,0,1,22.88,40.8Z"/><rect class="cls-3" x="52.42" y="30.7" width="12.59" height="1.17" transform="translate(-4.93 50.68) rotate(-45)"/><path class="cls-6" d="M35.18,54.82l2.88,2.88a1.56,1.56,0,0,0,2.21,0L56,42a5.43,5.43,0,0,0,1.59-3.93,5.65,5.65,0,0,0-1.67-4"/><path class="cls-7" d="M55.9,34.11a5.64,5.64,0,0,0-4-1.67A5.42,5.42,0,0,0,48,34L32.3,49.73a1.56,1.56,0,0,0,0,2.21l2.88,2.88"/><path class="cls-7" d="M56.51,33.5a7.25,7.25,0,0,1,0-10.25.78.78,0,0,1,1.1,0l4.58,4.58"/><path class="cls-6" d="M62.18,27.82l4.57,4.57a.78.78,0,0,1,0,1.1,7.25,7.25,0,0,1-10.25,0h0"/><path class="cls-8" d="M38.35,53.25l-1.6-1.6,1.6-1.6,1.6,1.6Zm2.4-2.4-1.6-1.6,1.6-1.6,1.6,1.6Zm2.4-2.4-1.6-1.6,1.6-1.6,1.6,1.6Zm2.4-2.4L44,44.44l1.6-1.6,1.6,1.6Zm2.4-2.4L46.36,42l1.6-1.6,1.6,1.6Zm2.4-2.4-1.6-1.6,1.6-1.6,1.6,1.6Zm2.4-2.4-1.6-1.6,1.6-1.6,1.6,1.6Z"/><circle class="cls-7" cx="64.32" cy="25.68" r="1.89" transform="translate(0.69 53.02) rotate(-45.02)"/></g><g id="stars"><circle class="cls-9" cx="58.36" cy="75.36" r="0.96"/><circle class="cls-9" cx="46.66" cy="14.64" r="0.96"/><circle class="cls-9" cx="74.26" cy="59.47" r="0.96"/><circle class="cls-9" cx="15.74" cy="45.26" r="0.96"/><circle class="cls-9" cx="73.29" cy="36.42" r="0.96"/><path class="cls-9" d="M25,64.29a1,1,0,1,0,1,1,1,1,0,0,0-1-1"/></g></g></g></svg>