<svg xmlns="http://www.w3.org/2000/svg" viewBox="0 0 90 90"><defs><style>.cls-1{fill:#073349;}.cls-2{fill:#1b5a89;}.cls-3{fill:#dfeff6;}.cls-4{fill:#bbd2da;}.cls-5{fill:#bfd7e2;}.cls-6{fill:#fff;}.cls-7,.cls-9{fill:#93afbc;}.cls-7{opacity:0.5;}.cls-8{fill:#d7ebf4;}.cls-10{fill:#aac7d1;}.cls-11{fill:#09b2a5;}.cls-12{fill:#089992;}.cls-13{fill:#ffd400;}</style></defs><title>satelite-radar</title><g id="satelite-radar"><g id="satelite-radar-2" data-name="satelite-radar"><circle id="back" class="cls-1" cx="45" cy="45" r="42.5"/><g id="stars"><path class="cls-2" d="M58.37,16.14a1,1,0,1,0-1-1,1,1,0,0,0,1,1"/><circle class="cls-2" cx="23.79" cy="15.15" r="1"/><circle class="cls-2" cx="71.06" cy="21.12" r="1"/><circle class="cls-2" cx="17.33" cy="27.09" r="1"/><circle class="cls-2" cx="20.32" cy="66.89" r="1"/><circle class="cls-2" cx="73.44" cy="53.83" r="1"/></g><g id="satelite-2" data-name="satelite"><circle class="cls-3" cx="51.29" cy="41.23" r="2.95" transform="translate(-13.61 52.12) rotate(-48.32)"/><polygon class="cls-3" points="38.48 50.41 43.66 55.02 52.33 41.77 50.64 40.26 38.48 50.41"/><path class="cls-4" d="M49.33,43.44A2.95,2.95,0,0,0,53.26,39l-3.93,4.39Z"/><polygon class="cls-4" points="43.66 55.02 52.33 41.77 51.48 41.02 41.03 52.68 43.66 55.02"/><path class="cls-5" d="M25.08,33.12A24.75,24.75,0,0,0,62.08,66Z"/><circle class="cls-6" cx="31.68" cy="72.89" r="4.94"/><path class="cls-7" d="M54.64,59.38C45.49,69,36.28,74.94,26.29,66.07a24.69,24.69,0,0,1-5.19-6.48,24.74,24.74,0,0,0,41,6.4Z"/><path class="cls-8" d="M29.19,74.29l2.25-1.39-2.68-1.36.34-.68L23.6,81.71a42.35,42.35,0,0,0,4,2.07L31,77.16Z"/><polygon class="cls-8" points="33.09 71.88 32.2 72.43 34 73.35 33.09 71.88"/><path class="cls-8" d="M31.9,78.66l5,8.06a42.54,42.54,0,0,0,5.84.72L34.32,73.86Z"/><polygon class="cls-8" points="30.97 77.16 32.78 73.58 31.44 72.9 29.19 74.29 30.97 77.16"/><path class="cls-9" d="M34.32,73.86,34,73.35l-1.81-.92-3.1-1.57-.34.68,2.68,1.36,1.35.68L31,77.16l-3.35,6.62c.46.21.92.4,1.38.59l2.9-5.72Z"/><path class="cls-9" d="M33.09,71.88h0L34,73.35l.32.52,8.41,13.57c.57,0,1.14,0,1.71,0L34.31,71.12Z"/><circle class="cls-3" cx="31.68" cy="72.89" r="4.94"/><path class="cls-10" d="M31.68,67.95a4.94,4.94,0,0,0-1,.11,4.94,4.94,0,0,1,0,9.67,4.94,4.94,0,1,0,1-9.77Z"/></g><g id="antenna"><path class="cls-11" d="M52.24,22a1.12,1.12,0,0,1,1.15-1.15A16.79,16.79,0,0,1,70.16,37.66a1.15,1.15,0,0,1-2.3,0A14.5,14.5,0,0,0,53.42,23.22a1.11,1.11,0,0,1-.82-.33A1.2,1.2,0,0,1,52.24,22Z"/><path class="cls-11" d="M52.24,27.84a1.12,1.12,0,0,1,1.15-1.15,11,11,0,0,1,11,11,1.15,1.15,0,1,1-2.3,0,8.69,8.69,0,0,0-8.7-8.7,1.12,1.12,0,0,1-1.15-1.15Z"/><path class="cls-11" d="M52.43,33.56a1.12,1.12,0,0,1,1.15-1.15,5.11,5.11,0,0,1,5.09,5.09,1.15,1.15,0,1,1-2.3,0,2.8,2.8,0,0,0-2.79-2.79,1.12,1.12,0,0,1-1.15-1.15Z"/><path class="cls-12" d="M52.51,21.82a.68.68,0,0,0-.25,0,.84.84,0,0,0,0,.25,1.12,1.12,0,0,0,1.15,1.15A14.43,14.43,0,0,1,67.83,37.69,1.12,1.12,0,0,0,69,38.84a.68.68,0,0,0,.25,0,.84.84,0,0,0,0-.25A16.74,16.74,0,0,0,52.51,21.82Z"/><path class="cls-12" d="M52.49,27.59a.68.68,0,0,0-.25,0,.84.84,0,0,0,0,.25A1.12,1.12,0,0,0,53.36,29a8.69,8.69,0,0,1,8.7,8.7,1.12,1.12,0,0,0,1.15,1.15.68.68,0,0,0,.25,0,.84.84,0,0,0,0-.25A11,11,0,0,0,52.49,27.59Z"/><path class="cls-12" d="M52.68,33.31a.68.68,0,0,0-.25,0,.84.84,0,0,0,0,.25,1.12,1.12,0,0,0,1.15,1.15,2.8,2.8,0,0,1,2.79,2.79,1.12,1.12,0,0,0,1.15,1.15.68.68,0,0,0,.25,0,.84.84,0,0,0,0-.25A5,5,0,0,0,52.68,33.31Z"/></g><polygon id="star" class="cls-13" points="43.49 24.94 39.65 25.82 38.77 29.66 37.88 25.82 34.05 24.94 37.88 24.05 38.77 20.22 39.65 24.05 43.49 24.94"/></g></g></svg>