<svg xmlns="http://www.w3.org/2000/svg" viewBox="0 0 90 90"><defs><style>.cls-1{fill:#073349;}.cls-2{fill:#09b2a5;}.cls-3{fill:#ffd400;}.cls-4{fill:#1b5a89;}.cls-5{fill:#2cb4ff;}.cls-6{fill:#f94bc3;}</style></defs><title>solar-system</title><g id="solar-system"><g id="solar-system-2" data-name="solar-system"><circle id="back" class="cls-1" cx="45" cy="45" r="42.5"/><g id="solar-system-3" data-name="solar-system"><circle class="cls-2" cx="36.18" cy="40.02" r="3.46"/><circle class="cls-3" cx="45" cy="45" r="4.33"/><path class="cls-4" d="M67.16,34.05a.87.87,0,0,1-.77-.46c-.13-.25-.26-.49-.4-.73a.87.87,0,1,1,1.5-.87q.23.39.44.79A.87.87,0,0,1,67.56,34,.86.86,0,0,1,67.16,34.05Z"/><path class="cls-4" d="M45,71a26,26,0,1,1,12.21-48.9.87.87,0,0,1-.82,1.53A24.22,24.22,0,1,0,67.45,35.84a.87.87,0,0,1,1.6-.66A26,26,0,0,1,45,71Z"/><path class="cls-4" d="M45.07,64a.87.87,0,0,1,0-1.73l.83,0a.88.88,0,0,1,.91.82A.87.87,0,0,1,46,64l-.9,0Z"/><path class="cls-4" d="M42.52,63.88H42.4A19.05,19.05,0,1,1,59,57.93a.87.87,0,1,1-1.27-1.18,17.31,17.31,0,1,0-15.08,5.4.87.87,0,0,1-.12,1.72Z"/><path class="cls-4" d="M45,57.12a12.14,12.14,0,0,1-11.7-8.94A.87.87,0,1,1,35,47.73,10.38,10.38,0,1,0,42.25,35a.87.87,0,1,1-.45-1.67A12.12,12.12,0,1,1,45,57.12Z"/><circle class="cls-5" cx="62.64" cy="26.82" r="3.46"/><circle class="cls-6" cx="52.79" cy="61.23" r="3.46"/></g></g></g></svg>