<svg xmlns="http://www.w3.org/2000/svg" viewBox="0 0 90 90"><defs><style>.cls-1{fill:#073349;}.cls-2{fill:#5d8189;}.cls-3{fill:#7da4ad;}.cls-4{fill:#7498a1;}.cls-5{fill:#8eb2bc;}.cls-6{fill:#ffd400;}.cls-7{fill:#ffb600;}.cls-8{fill:#7099a0;}.cls-9{fill:#93afbc;}.cls-10{fill:#bfd7e2;}.cls-11{fill:#d7ebf4;}.cls-12{fill:#1b5a89;}.cls-13{fill:#2cb4ff;}.cls-14{fill:#349dd1;}</style></defs><title>telescope</title><g id="telescope"><g id="telescope-2" data-name="telescope"><circle id="back" class="cls-1" cx="45" cy="45" r="42.5"/><g id="telescope-3" data-name="telescope"><g id="telescope-4" data-name="telescope"><path class="cls-2" d="M37.1,57.21A1.07,1.07,0,0,1,36,56.14V45.29a1.07,1.07,0,1,1,2.14,0V56.14A1.07,1.07,0,0,1,37.1,57.21Z"/><path class="cls-3" d="M23.74,74.4a1.07,1.07,0,0,1-.84-1.73L36.26,55.48a1.07,1.07,0,0,1,1.69,1.31L24.58,74A1.07,1.07,0,0,1,23.74,74.4Z"/><path class="cls-4" d="M37.1,74.4A1.07,1.07,0,0,1,36,73.33V56.14a1.07,1.07,0,1,1,2.14,0V73.33A1.07,1.07,0,0,1,37.1,74.4Z"/><path class="cls-3" d="M50.47,74.4a1.07,1.07,0,0,1-.85-.42L36.25,56.39A1.07,1.07,0,1,1,38,55.09L51.32,72.68a1.07,1.07,0,0,1-.85,1.72Z"/><circle class="cls-5" cx="37.1" cy="56.74" r="3.21"/><path class="cls-6" d="M37.1,55a1.73,1.73,0,1,1-1.65,1.73A1.69,1.69,0,0,1,37.1,55"/><path class="cls-7" d="M37.1,56.42a1.34,1.34,0,0,1,1.31,1.37c0,.76-.59.85-1.31.85s-1.31-.09-1.31-.85a1.34,1.34,0,0,1,1.31-1.37"/><path class="cls-8" d="M37.1,58.88a2.14,2.14,0,1,1,2.14-2.14A2.14,2.14,0,0,1,37.1,58.88Zm0-3.75a1.61,1.61,0,1,0,1.61,1.6A1.61,1.61,0,0,0,37.1,55.14Z"/><path class="cls-9" d="M19.94,49.53a.61.61,0,0,1-.57-.41l-2.15-5.2a.64.64,0,0,1,.34-.82l4.61-1.91.94-.4a40.29,40.29,0,0,1,2.62,6.45l-5.49,2.27Z"/><path class="cls-10" d="M26.63,50.82a1.28,1.28,0,0,1-1.2-.86L20.93,39.09a1.33,1.33,0,0,1,.71-1.72l9.64-4,2-.83c.53,0,5.81,13.35,5.48,13.48L27.23,50.78Z"/><path class="cls-11" d="M39,47.4a1.31,1.31,0,0,1-1.21-.81L32,32.6a1.31,1.31,0,0,1,.64-1.69l16.15-7.63H49a1.32,1.32,0,0,1,1.2.78L57,40.21l-.15.35a1.89,1.89,0,0,1-1.11,1L39.2,47.39Z"/></g></g><g id="stars"><path class="cls-12" d="M73.78,40.42a1,1,0,1,0-1,1,1,1,0,0,0,1-1"/><circle class="cls-12" cx="66.15" cy="44.22" r="1"/><circle class="cls-12" cx="77.82" cy="48.93" r="1"/><circle class="cls-12" cx="65.16" cy="52.78" r="1"/><circle class="cls-12" cx="61.34" cy="22.38" r="1"/><circle class="cls-12" cx="49.43" cy="14.71" r="1"/></g><g id="stars-2" data-name="stars"><polygon class="cls-13" points="72.71 26.25 68.88 27.14 67.99 30.98 67.11 27.14 63.27 26.25 67.11 25.37 67.99 21.53 68.88 25.37 72.71 26.25"/><polygon class="cls-14" points="67.05 35.7 64.75 36.23 64.21 38.53 63.68 36.23 61.38 35.7 63.68 35.17 64.21 32.86 64.75 35.17 67.05 35.7"/></g></g></g></svg>