<svg xmlns="http://www.w3.org/2000/svg" viewBox="0 0 90 90"><defs><style>.cls-1{fill:#073349;}.cls-2{fill:#ffc200;}.cls-3{fill:#ffde3d;}.cls-4{fill:#ffa300;}.cls-5{fill:#ff7f00;}.cls-6{fill:#089992;}.cls-7{fill:#048389;}.cls-8{fill:#ffd400;}.cls-9{fill:#ffb600;}.cls-10{fill:#04727a;}.cls-11{fill:#79ccc8;}.cls-12{fill:#a0eaea;}.cls-13{fill:#66bcb5;}.cls-14{fill:#5fb0a9;}.cls-15{fill:#09b2a5;}.cls-16{fill:#fa0;}</style></defs><title>ufo</title><g id="ufo"><g id="ufo-2" data-name="ufo"><circle id="back" class="cls-1" cx="45" cy="45" r="42.5"/><g id="light"><path class="cls-2" d="M35.44,54.92,29.89,84.72a42.16,42.16,0,0,0,5.92,1.77l2.47-29.74H52.09l2.14,29.73a42.16,42.16,0,0,0,5.89-1.76L54.56,54.92Z"/><path class="cls-3" d="M38.28,56.75,35.81,86.49a42.41,42.41,0,0,0,18.41,0L52.09,56.75Z"/></g><g id="ufo-3" data-name="ufo"><path class="cls-4" d="M45.56,58.62H44.44c-7.7-.26-13.89-5.74-14.24-13H59.8C59.44,52.89,53.26,58.37,45.56,58.62Z"/><path class="cls-5" d="M45.56,57.44H44.44c-7.7-.26-13.89-5.74-14.24-13H59.8C59.44,51.7,53.26,57.18,45.56,57.44Z"/><path class="cls-6" d="M13.36,46.78c0-5,14.17-9,31.64-9s31.64,4,31.64,9"/><path class="cls-7" d="M76.64,46.78c0,5-14.17,9-31.64,9s-31.64-4-31.64-9"/><path class="cls-8" d="M18,45.35a1.44,1.44,0,1,1-1.37,1.44A1.4,1.4,0,0,1,18,45.35"/><path class="cls-9" d="M18,46.52a1.11,1.11,0,0,1,1.09,1.14c0,.63-.49.7-1.09.7S17,48.28,17,47.65A1.11,1.11,0,0,1,18,46.52"/><path class="cls-10" d="M18,48.56a1.78,1.78,0,1,1,1.71-1.78A1.75,1.75,0,0,1,18,48.56Zm0-2.87a1.1,1.1,0,1,0,1,1.1A1.07,1.07,0,0,0,18,45.69Z"/><path class="cls-8" d="M27,45.35a1.44,1.44,0,1,1-1.37,1.44A1.4,1.4,0,0,1,27,45.35"/><path class="cls-9" d="M27,46.51a1.11,1.11,0,0,1,1.09,1.14c0,.63-.49.7-1.09.7s-1.09-.07-1.09-.7A1.11,1.11,0,0,1,27,46.51"/><path class="cls-10" d="M27,48.56a1.78,1.78,0,1,1,1.71-1.78A1.75,1.75,0,0,1,27,48.56Zm0-2.87a1.1,1.1,0,1,0,1,1.1A1.07,1.07,0,0,0,27,45.69Z"/><path class="cls-8" d="M36,45.35a1.44,1.44,0,1,1-1.37,1.44A1.4,1.4,0,0,1,36,45.35"/><path class="cls-9" d="M36,46.51a1.11,1.11,0,0,1,1.09,1.14c0,.63-.49.7-1.09.7s-1.09-.07-1.09-.7A1.11,1.11,0,0,1,36,46.51"/><path class="cls-10" d="M36,48.56a1.78,1.78,0,1,1,1.71-1.78A1.75,1.75,0,0,1,36,48.56Zm0-2.87a1.1,1.1,0,1,0,1,1.1A1.07,1.07,0,0,0,36,45.69Z"/><path class="cls-8" d="M45,45.35a1.44,1.44,0,1,1-1.37,1.44A1.4,1.4,0,0,1,45,45.35"/><path class="cls-9" d="M45,46.52a1.11,1.11,0,0,1,1.09,1.14c0,.63-.49.7-1.09.7s-1.09-.07-1.09-.7A1.11,1.11,0,0,1,45,46.52"/><path class="cls-10" d="M45,48.56a1.78,1.78,0,1,1,1.71-1.78A1.75,1.75,0,0,1,45,48.56Zm0-2.87a1.1,1.1,0,1,0,1,1.1A1.07,1.07,0,0,0,45,45.69Z"/><path class="cls-8" d="M54,45.35a1.44,1.44,0,1,1-1.37,1.44A1.4,1.4,0,0,1,54,45.35"/><path class="cls-9" d="M54,46.51a1.11,1.11,0,0,1,1.09,1.14c0,.63-.49.7-1.09.7s-1.09-.07-1.09-.7A1.11,1.11,0,0,1,54,46.51"/><path class="cls-10" d="M54,48.56a1.78,1.78,0,1,1,1.71-1.78A1.75,1.75,0,0,1,54,48.56Zm0-2.87a1.1,1.1,0,1,0,1,1.1A1.07,1.07,0,0,0,54,45.69Z"/><path class="cls-8" d="M71.95,45.35a1.44,1.44,0,1,1-1.37,1.44,1.4,1.4,0,0,1,1.37-1.44"/><path class="cls-9" d="M72,46.51A1.11,1.11,0,0,1,73,47.65c0,.63-.49.7-1.09.7s-1.09-.07-1.09-.7A1.11,1.11,0,0,1,72,46.51"/><path class="cls-10" d="M71.95,48.56a1.78,1.78,0,1,1,1.71-1.78A1.75,1.75,0,0,1,71.95,48.56Zm0-2.87a1.1,1.1,0,1,0,1,1.1A1.07,1.07,0,0,0,71.95,45.69Z"/><path class="cls-8" d="M63,45.35a1.44,1.44,0,1,1-1.37,1.44A1.4,1.4,0,0,1,63,45.35"/><path class="cls-9" d="M63,46.51a1.11,1.11,0,0,1,1.09,1.14c0,.63-.49.7-1.09.7s-1.09-.07-1.09-.7A1.11,1.11,0,0,1,63,46.51"/><path class="cls-10" d="M63,48.56a1.78,1.78,0,1,1,1.71-1.78A1.75,1.75,0,0,1,63,48.56Zm0-2.87a1.1,1.1,0,1,0,1,1.1A1.07,1.07,0,0,0,63,45.69Z"/><path class="cls-11" d="M30.2,40.37H59.8c-.35-6.62-6.54-11.61-14.24-11.84H44.44l-.58,0C36.44,29,30.55,33.92,30.2,40.37Z"/><path class="cls-12" d="M30.2,40.37h4.55c.35-6.45,4-11.34,11.39-11.81l-.58,0H44.44C36.75,28.78,30.56,33.76,30.2,40.37Z"/><path class="cls-13" d="M46.8,39.85a11.21,11.21,0,0,1,1.59-2.94c1.87-2.3-1.78-4.16-3.39-4.16s-5.26,1.86-3.39,4.16a11,11,0,0,1,1.57,2.9"/><path class="cls-14" d="M43.16,37.33c-.78-.26-1.31-.94-1.18-1.5s.86-.81,1.64-.55,1.31.94,1.18,1.5S43.94,37.59,43.16,37.33Z"/><path class="cls-14" d="M46.84,37.33c-.78.26-1.51,0-1.64-.55s.4-1.24,1.18-1.5,1.51,0,1.64.55S47.62,37.07,46.84,37.33Z"/><path class="cls-15" d="M61,40.8H29a.53.53,0,1,1,0-1.05H61a.53.53,0,0,1,0,1.05Z"/><path class="cls-10" d="M74.32,33.73a.53.53,0,0,0-.74.11L67,42.58a.53.53,0,0,0,.11.74.52.52,0,0,0,.32.11.53.53,0,0,0,.42-.21l6.56-8.74A.53.53,0,0,0,74.32,33.73Z"/><circle class="cls-16" cx="74.53" cy="33.27" r="1.58"/><path class="cls-10" d="M16.42,33.84a.53.53,0,1,0-.84.63l6.56,8.74a.53.53,0,0,0,.84-.63Z"/><circle class="cls-16" cx="15.47" cy="33.27" r="1.58"/></g></g></g></svg>