<svg xmlns="http://www.w3.org/2000/svg" viewBox="0 0 90 90"><defs><style>.cls-1{fill:#073349;}.cls-2{fill:#09b2a5;}.cls-3,.cls-5{fill:#048389;}.cls-4{fill:#089992;}.cls-5{opacity:0.4;}.cls-6{fill:#a0eaea;}</style></defs><title>uranus</title><g id="uranus"><g id="uranus-2" data-name="uranus"><circle id="back" class="cls-1" cx="45" cy="45" r="42.5"/><g id="stars"><path class="cls-2" d="M59.18,20.12a1,1,0,1,0-1-1,1,1,0,0,0,1,1"/><circle class="cls-2" cx="24.59" cy="19.13" r="1"/><circle class="cls-2" cx="71.87" cy="25.1" r="1"/><circle class="cls-2" cx="18.13" cy="31.07" r="1"/><circle class="cls-2" cx="21.12" cy="70.87" r="1"/><circle class="cls-2" cx="74.24" cy="57.81" r="1"/></g><g id="uranus-3" data-name="uranus"><circle class="cls-2" cx="45.46" cy="45" r="21.72" transform="translate(-17.99 36.87) rotate(-37.41)"/><path class="cls-3" d="M58.8,62.33A21.36,21.36,0,0,1,29.4,59,21.37,21.37,0,0,0,60,29.59c-.18-.23-.36-.46-.56-.69a21.36,21.36,0,0,1-.65,33.42Z"/><circle class="cls-4" cx="53.03" cy="39.16" r="2.78"/><circle class="cls-4" cx="61.53" cy="45.27" r="0.35"/><circle class="cls-4" cx="48.58" cy="46.53" r="0.35"/><circle class="cls-4" cx="39.6" cy="29.91" r="1.99"/><circle class="cls-4" cx="28.88" cy="42.56" r="3.12"/><circle class="cls-4" cx="37.61" cy="54.8" r="1.3"/><circle class="cls-4" cx="35.56" cy="39.49" r="1.04"/><path class="cls-5" d="M32.26,27.75A21.72,21.72,0,1,1,58.65,62.25"/><path class="cls-6" d="M67.87,27.3c-3.63-4.74-19.56,5.45-27.47,11.5A94.37,94.37,0,0,0,25.89,52.21c-4,4.82-5.28,8.13-3.78,10.09a3.09,3.09,0,0,0,.26.3,3.76,3.76,0,0,0,2.78,1A16.47,16.47,0,0,0,31,62.11a1.37,1.37,0,0,0,.59-.47l.26-.35L31.48,61c-.47-.41-.92-.85-1.35-1.29l-.22-.23-.29.12c-4.28,1.67-5.25,1-5.25,1-.15-.27,0-2.19,3.69-6.56A91.57,91.57,0,0,1,42.12,41C55.7,30.67,64.75,27.91,65.62,29c0,0,.39,1-2,4.39l-.18.25.16.27c.32.53.64,1.1.93,1.68l.21.42.42-.21a1.37,1.37,0,0,0,.52-.42C68.44,31.63,69.16,29,67.87,27.3Z"/></g></g></g></svg>