<svg xmlns="http://www.w3.org/2000/svg" viewBox="0 0 90 90"><defs><style>.cls-1{fill:#073349;}.cls-2{fill:#349dd1;}.cls-3{fill:#2cb4ff;}.cls-4{fill:#1b5a89;}</style></defs><title>ursa-minor</title><g id="ursa-minor"><g id="ursa-minor-2" data-name="ursa-minor"><circle id="back" class="cls-1" cx="45" cy="45" r="42.5"/><g id="ursa-minor-3" data-name="ursa-minor"><path class="cls-2" d="M65.62,28.86a.9.9,0,1,0-.9-.9.9.9,0,0,0,.9.9"/><path class="cls-2" d="M40.52,24.38a.9.9,0,1,0-.9-.9.9.9,0,0,0,.9.9"/><path class="cls-2" d="M39.62,42.31a.9.9,0,1,0-.9-.9.9.9,0,0,0,.9.9"/><path class="cls-2" d="M22.58,62a.9.9,0,1,0-.9-.9.9.9,0,0,0,.9.9"/><path class="cls-2" d="M40.52,66.52a.9.9,0,1,0-.9-.9.9.9,0,0,0,.9.9"/><circle class="cls-3" cx="54.86" cy="65.62" r="3.59" transform="translate(-30.33 58.01) rotate(-45)"/><path class="cls-4" d="M54.86,70.08A4.45,4.45,0,1,1,58,68.77h0A4.42,4.42,0,0,1,54.86,70.08Zm0-7.17a2.72,2.72,0,0,0-1.92,4.64,2.79,2.79,0,0,0,3.85,0h0a2.72,2.72,0,0,0-1.92-4.64Z"/><circle class="cls-3" cx="66.52" cy="54.21" r="3.59" transform="translate(-18.85 62.91) rotate(-45)"/><path class="cls-4" d="M66.52,58.66a4.45,4.45,0,1,1,3.15-1.3h0A4.43,4.43,0,0,1,66.52,58.66Zm0-7.17a2.72,2.72,0,1,0,1.92,4.64h0a2.72,2.72,0,0,0-1.92-4.64Z"/><circle class="cls-3" cx="52.17" cy="40.52" r="3.59" transform="translate(-13.37 48.76) rotate(-45)"/><path class="cls-4" d="M52.17,45a4.45,4.45,0,0,1,0-8.9h0a4.45,4.45,0,0,1,0,8.9Zm0-7.17a2.72,2.72,0,0,0-1.92,4.64,2.78,2.78,0,0,0,3.85,0h0a2.72,2.72,0,0,0-1.92-4.64Z"/><circle class="cls-3" cx="40.52" cy="51.67" r="4.48" transform="translate(-24.67 43.78) rotate(-45)"/><path class="cls-4" d="M40.52,57a5.35,5.35,0,1,1,3.78-1.56h0A5.33,5.33,0,0,1,40.52,57Zm0-9a3.62,3.62,0,1,0,2.56,1.06A3.59,3.59,0,0,0,40.52,48.06Zm3.17,6.79h0Z"/><path class="cls-4" d="M57.48,64.47l-.72-.79A2.71,2.71,0,0,0,53,63.62l-.61.55-9.62-9.62.49-.61a3.61,3.61,0,0,0,0-4.54l-.49-.61,6.89-6.89.61.58a2.7,2.7,0,0,0,3.79,0h0a1.85,1.85,0,0,0,.16-.19l.66-.86L65.21,51.68l-.61.61a2.72,2.72,0,0,0,0,3.85l.61.61Zm-2.61-3.29a4.42,4.42,0,0,1,2.61.85l5.33-5.34a4.46,4.46,0,0,1,0-5L55,43.94a4.41,4.41,0,0,1-5.23.33L45.1,49a5.35,5.35,0,0,1,0,5.43l7.45,7.45A4.45,4.45,0,0,1,54.88,61.18Z"/><circle class="cls-3" cx="26.17" cy="40.52" r="2.69"/><path class="cls-4" d="M26.17,44.07a3.56,3.56,0,1,1,3.56-3.56A3.56,3.56,0,0,1,26.17,44.07Zm0-5.38A1.82,1.82,0,1,0,28,40.52,1.83,1.83,0,0,0,26.17,38.69Z"/><circle class="cls-3" cx="22.58" cy="23.48" r="2.69"/><path class="cls-4" d="M22.58,27a3.56,3.56,0,1,1,3.56-3.56A3.56,3.56,0,0,1,22.58,27Zm0-5.38a1.82,1.82,0,1,0,1.82,1.82A1.83,1.83,0,0,0,22.58,21.66Z"/><rect class="cls-4" x="31.13" y="40.5" width="1.73" height="10.8" transform="translate(-23.56 39.32) rotate(-48.36)"/><path class="cls-4" d="M25.27,38.69a.87.87,0,0,1-.84-.67L21.74,26.36A.87.87,0,0,1,23.43,26l2.69,11.66a.87.87,0,0,1-.65,1Z"/></g></g></g></svg>