<svg xmlns="http://www.w3.org/2000/svg" viewBox="0 0 90 90"><defs><style>.cls-1{fill:#073349;}.cls-2{fill:#ffd400;}.cls-3{fill:#ffb600;}.cls-4{fill:#ea5807;}.cls-5{fill:#bc350c;}.cls-6{opacity:0.8;}</style></defs><title>asteroid</title><g id="asteroid"><g id="asteroid-2" data-name="asteroid"><circle id="back" class="cls-1" cx="45" cy="45" r="42.5"/><g id="asteroid-3" data-name="asteroid"><path class="cls-2" d="M49.21,42a.84.84,0,0,1-.59-1.43l1.79-1.76A.84.84,0,0,1,51.58,40l-1.79,1.76A.83.83,0,0,1,49.21,42Zm5.36-5.29A.84.84,0,0,1,54,35.26l1.79-1.76a.84.84,0,1,1,1.17,1.19l-1.79,1.76A.83.83,0,0,1,54.57,36.69Zm5.36-5.29A.84.84,0,0,1,59.34,30l1.79-1.76A.84.84,0,1,1,62.3,29.4l-1.79,1.76A.83.83,0,0,1,59.92,31.41Zm5.36-5.29a.84.84,0,0,1-.59-1.43l1.79-1.76a.84.84,0,1,1,1.17,1.19l-1.79,1.76A.83.83,0,0,1,65.28,26.12Z"/><path class="cls-3" d="M41.39,39.49a.84.84,0,0,1-.59-1.43l1.78-1.76a.84.84,0,0,1,1.18,1.19L42,39.25A.84.84,0,0,1,41.39,39.49Zm5.36-5.29a.84.84,0,0,1-.59-1.43L47.94,31a.84.84,0,1,1,1.18,1.19L47.33,34A.84.84,0,0,1,46.74,34.2Zm5.36-5.29a.84.84,0,0,1-.59-1.43l1.78-1.76a.84.84,0,0,1,1.18,1.19l-1.78,1.76A.84.84,0,0,1,52.1,28.91Zm5.36-5.29a.84.84,0,0,1-.59-1.43l1.52-1.5a.84.84,0,0,1,1.18,1.19L58,23.38A.84.84,0,0,1,57.45,23.62Z"/><path class="cls-3" d="M33.06,37.66a.84.84,0,0,1-.58-1.44l1.81-1.74a.84.84,0,0,1,1.16,1.2l-1.81,1.74A.83.83,0,0,1,33.06,37.66Zm5.42-5.22A.84.84,0,0,1,37.9,31l1.81-1.74a.84.84,0,0,1,1.16,1.2l-1.81,1.74A.83.83,0,0,1,38.48,32.44Z"/><path class="cls-3" d="M56.12,54.94a.84.84,0,0,1-.58-1.44l1.81-1.74A.84.84,0,0,1,58.51,53L56.7,54.7A.83.83,0,0,1,56.12,54.94Zm5.44-5.21A.84.84,0,0,1,61,48.29l.87-.84A.84.84,0,0,1,63,48.66l-.87.84A.84.84,0,0,1,61.55,49.73Z"/><path class="cls-3" d="M53.91,47.6a.84.84,0,0,1-.59-1.43l1.79-1.76a.84.84,0,1,1,1.17,1.19L54.5,47.36A.83.83,0,0,1,53.91,47.6Zm5.36-5.28a.84.84,0,0,1-.59-1.43l1.79-1.76a.84.84,0,1,1,1.17,1.19l-1.79,1.76A.83.83,0,0,1,59.28,42.32ZM64.64,37a.84.84,0,0,1-.59-1.43l1.79-1.76A.84.84,0,1,1,67,35l-1.79,1.76A.83.83,0,0,1,64.64,37Z"/><circle class="cls-3" cx="32.81" cy="31.38" r="0.58"/><circle class="cls-3" cx="50.66" cy="23.17" r="0.48"/><circle class="cls-3" cx="37.4" cy="37.66" r="0.48"/><circle class="cls-3" cx="29.76" cy="37.66" r="0.36"/><circle class="cls-3" cx="51.8" cy="44.27" r="0.48"/><circle class="cls-3" cx="44.29" cy="24.02" r="0.36"/><circle class="cls-3" cx="44.87" cy="40.46" r="0.48"/><circle class="cls-3" cx="64.47" cy="46.15" r="0.48"/><circle class="cls-3" cx="59.81" cy="56.91" r="0.48"/><circle class="cls-3" cx="55.28" cy="58.36" r="0.48"/><circle class="cls-3" cx="68.81" cy="32.33" r="0.36"/><circle class="cls-3" cx="63.63" cy="27.17" r="0.36"/><circle class="cls-3" cx="44.64" cy="29.03" r="0.35"/><circle class="cls-3" cx="60.29" cy="24.25" r="0.6"/><path class="cls-4" d="M25.52,43.11c-6.07,6.07-6.45,16.32,0,22,3.22,2.83,11,6.77,16.17,2.74,1.23-1,6-1.93,8.64-4.66,4-4.2,3.78-14.43-3.74-18.57-4.08-2.25-5.14.16-8-2.17C35.36,39.8,28.78,39.85,25.52,43.11Z"/><path class="cls-5" d="M46.59,44.6c-.23-.13-.45-.24-.66-.33C51.26,49,51,57.54,47.5,61.28,44.91,64,40.09,65,38.86,65.95c-3.85,3-9.13,1.58-12.91-.5,3.43,2.78,10.78,6.25,15.75,2.39,1.23-1,6-1.93,8.64-4.66C54.31,59,54.11,48.74,46.59,44.6Z"/><g class="cls-6"><path class="cls-5" d="M43.89,59.25a1.52,1.52,0,0,1-.49-.08.76.76,0,0,1,.48-1.44c.09,0,.59-.23.87-1.06s.06-1.33-.05-1.37a.76.76,0,1,1,.49-1.43c1.06.36,1.5,1.8,1,3.29A2.74,2.74,0,0,1,43.89,59.25Z"/></g><g class="cls-6"><path class="cls-5" d="M25.78,54.24l-.17,0a2.91,2.91,0,0,1,1.32-5.61.76.76,0,0,1-.35,1.47c-.53-.13-1.12.38-1.29,1.1A1.25,1.25,0,0,0,26,52.75a.76.76,0,0,1-.17,1.49Z"/></g><g class="cls-6"><path class="cls-5" d="M32.25,61.92A2.46,2.46,0,0,1,31,61.58a2.13,2.13,0,0,1-.94-2.84.76.76,0,0,1,1.31.76c-.11.19,0,.56.39.77a.86.86,0,0,0,.64.11.36.36,0,0,0,.23-.15A.76.76,0,0,1,34,61a1.86,1.86,0,0,1-1.15.86A2.18,2.18,0,0,1,32.25,61.92Z"/></g><g class="cls-6"><path class="cls-5" d="M37.36,50.26a3.33,3.33,0,0,1-1.62-.43,3.26,3.26,0,0,1-1.46-1.65,2.49,2.49,0,0,1,.11-2.12.76.76,0,0,1,1.32.74,1,1,0,0,0,0,.84,1.77,1.77,0,0,0,.79.87,1.37,1.37,0,0,0,1.86-.24.76.76,0,0,1,1.32.74A2.57,2.57,0,0,1,37.36,50.26Z"/></g></g></g></g></svg>