<svg xmlns="http://www.w3.org/2000/svg" viewBox="0 0 90 90"><defs><style>.cls-1{fill:#073349;}.cls-2{fill:#1b5a89;}.cls-3{fill:#09b2a5;}.cls-4{fill:#ff7f00;}.cls-5{fill:#fa0;}.cls-6{fill:#ffd400;}.cls-7{fill:#ffb600;}.cls-8{fill:#ff9700;}.cls-9{fill:#18456d;}.cls-10{opacity:0.8;}.cls-11{fill:#ea5807;}</style></defs><title>asteroid-earth</title><g id="asteroid-earth"><g id="asteroid-earth-2" data-name="asteroid-earth"><circle id="back" class="cls-1" cx="45" cy="45" r="42.5"/><g id="earth"><path class="cls-2" d="M64.55,41A21.83,21.83,0,1,1,45,28.86a22.08,22.08,0,0,1,3.12.22"/><path class="cls-3" d="M45.38,43a2.16,2.16,0,0,0-.28.22Z"/><path class="cls-3" d="M47.3,38.28c-.69.06-3-3.33-3.26-3.76s-1.42-.59-1.83-.78c-.91-.42-3.3-.88-2.56-2.33A8.46,8.46,0,0,1,42,29.59l.61-.6a21.81,21.81,0,0,0-15.28,8.86,5.24,5.24,0,0,0-.24.87,4.54,4.54,0,0,0,1.21,4c.32.3.77.4,1,.75a2.55,2.55,0,0,0,1.22.94c.79.26,1,.75,1.5,1.41a7,7,0,0,1,1.25,1.82c.35.93,2.86.93,3.72,1.39,1.2.63,5.89,3.83,7.24,3.65,0,0,1.68,0,1.33,1.23-.16.57-.68.92-.89,1.48a5.89,5.89,0,0,0-.13,1.43c-.06.5-.46,0-.06.85a7.77,7.77,0,0,0,.68,1.11,8.57,8.57,0,0,0,1.41,1.93c.43.41,1.38.9,1.6,1.5a6.11,6.11,0,0,1-.06,2.3c-.21,1.2-.18,2.64-.5,3.75s-.67,1.41-.4,2.58a4.3,4.3,0,0,1-.07,1.36,1.56,1.56,0,0,1-.13.25A22,22,0,0,0,49.79,72l0,0c.14-.36.78-1.86,1.1-2-.15-1.3,1.81-.21,2-1.54-.23-.12-.18-.05-.21-.26,0,.24.94-.1,1,.07s1.21-1.49,1.34-1.63a4,4,0,0,0,.81-1.05c.66-1.27.6-1,1.83-1.66-.17.09,1.28-1.18,1.37-1.66a11.58,11.58,0,0,1,.16-1.71c.24-.69.82-.92,1.2-1.51s.57-1.18.18-1.63c-.7-.79-2.86-1-3.37-1.15-1.43-.51-1.8-.61-1.91-1.36-.18-1.67-2.26-1.5-2.8-2a7.35,7.35,0,0,0-5.66-1.34c-1,.32-.47,1.08-1.41.63-1.6-.76-2.55-1.34-3.13-2.36-.21-.38-.66-.14-.56-.55s1.23-1.66.07-1.63c-.89,0-1.92.51-2-.3-.12-1.17-.2-1.8.89-2.5.88-.56,2.15-1.09,2.91.09.22.34.77,1.67,1,.81a8.24,8.24,0,0,0-.31-1.87v0a1.54,1.54,0,0,0,0-.16s0,.09,0,.14a4.3,4.3,0,0,1,1-1c.31-.22.72-.47.81-.75s-.24-.48-.08-.77a12.27,12.27,0,0,1,1.74-2"/><path class="cls-3" d="M49.81,72l0-.11,0,.07,0,0Z"/></g><g id="asteroid"><path class="cls-4" d="M60,45.75a1,1,0,1,0,1-1,1,1,0,0,0-1,1"/><path class="cls-5" d="M60,50.28a1,1,0,1,0,1-1,1,1,0,0,0-1,1"/><path class="cls-5" d="M67.14,43.28a1,1,0,1,0,1-1,1,1,0,0,0-1,1"/><path class="cls-6" d="M48.85,24a1,1,0,1,0,1-1,1,1,0,0,0-1,1"/><path class="cls-7" d="M54.95,21.93a1,1,0,1,0,1-1,1,1,0,0,0-1,1"/><path class="cls-7" d="M67.14,36.16a1,1,0,1,0,1-1,1,1,0,0,0-1,1"/><path class="cls-4" d="M44.78,26a1,1,0,1,0,1-1,1,1,0,0,0-1,1"/><path class="cls-6" d="M37.67,36.22a1,1,0,1,0,1-1,1,1,0,0,0-1,1"/><path class="cls-8" d="M43.76,31.71a1,1,0,1,0,1-1,1,1,0,0,0-1,1"/><path class="cls-5" d="M43.08,38.19a1,1,0,1,0,1-1,1,1,0,0,0-1,1"/><path class="cls-6" d="M52.91,47.34a1,1,0,1,0,1-1,1,1,0,0,0-1,1"/><path class="cls-7" d="M63.07,18.88a1,1,0,1,0,1-1,1,1,0,0,0-1,1"/><path class="cls-7" d="M71.08,27a1,1,0,1,0,1-1,1,1,0,0,0-1,1"/><path class="cls-7" d="M44.78,21.93a1,1,0,1,0,1-1,1,1,0,0,0-1,1"/><path class="cls-9" d="M56.47,44.67a10,10,0,0,0,7.81-3.75l-.05-.11L48.18,29.2h-.12a10,10,0,0,0,8.42,15.48Z"/><circle class="cls-4" cx="56.47" cy="34.64" r="8.64"/><path class="cls-6" d="M60,23.86a.91.91,0,0,1-.64-1.56l2-2a.91.91,0,0,1,1.29,1.29l-2,2A.91.91,0,0,1,60,23.86Z"/><path class="cls-6" d="M65.11,26.91a.91.91,0,0,1-.64-1.56l5.08-5.08a.91.91,0,0,1,1.29,1.29l-5.08,5.08A.91.91,0,0,1,65.11,26.91Z"/><path class="cls-6" d="M68.16,32a.91.91,0,0,1-.64-1.56l2-2a.91.91,0,0,1,1.29,1.29l-2,2A.91.91,0,0,1,68.16,32Z"/><g class="cls-10"><path class="cls-11" d="M47.82,36.47a.86.86,0,1,0,.86-.87.86.86,0,0,0-.86.87"/><path class="cls-11" d="M51.28,36.47a.86.86,0,1,0,.86-.87.87.87,0,0,0-.86.87"/><path class="cls-11" d="M49.55,38.19a.86.86,0,1,0,.86-.86.86.86,0,0,0-.86.86"/><path class="cls-11" d="M53,38.19a.86.86,0,1,0,.87-.86.86.86,0,0,0-.87.86"/><path class="cls-11" d="M51.28,39.92a.86.86,0,1,0,.86-.87.86.86,0,0,0-.86.87"/><path class="cls-11" d="M56.46,38.19a.86.86,0,1,0,.86-.86.86.86,0,0,0-.86.86"/><path class="cls-11" d="M54.73,39.92a.86.86,0,1,0,.86-.87.87.87,0,0,0-.86.87"/><path class="cls-11" d="M56.46,41.65a.86.86,0,1,0,.86-.86.86.86,0,0,0-.86.86"/><path class="cls-11" d="M53,41.65a.86.86,0,1,0,.87-.86.87.87,0,0,0-.87.86"/><path class="cls-11" d="M49.55,34.74a.86.86,0,1,0,.86-.86.86.86,0,0,0-.86.86"/><path class="cls-11" d="M53.87,35.6a.86.86,0,1,0,.86-.86.86.86,0,0,0-.86.86"/></g></g></g></g></svg>