<svg xmlns="http://www.w3.org/2000/svg" viewBox="0 0 90 90"><defs><style>.cls-1{fill:#073349;}.cls-2{fill:#d7ebf4;}.cls-3{fill:#bfd7e2;}.cls-4{fill:#ea5807;}.cls-5{fill:#ffb600;}.cls-6{fill:#93afbc;opacity:0.2;}.cls-7{fill:#1b5a89;}.cls-8{fill:#bc350c;}.cls-9{fill:#2cb4ff;}</style></defs><title>moon-flag</title><g id="moon-flag"><g id="moon-flag-2" data-name="moon-flag"><circle id="back" class="cls-1" cx="45" cy="45" r="42.5"/><g id="moon-flag-3" data-name="moon-flag"><path class="cls-2" d="M45,48.56c-15.65,0-29,9.24-33.87,22.11a42.73,42.73,0,0,0,9.37,9.05c1.08-1.58,5.69,3.39,5.69,3.39A42.5,42.5,0,0,0,78.87,70.67C74,57.8,60.66,48.56,45,48.56Zm-11.35,21a6,6,0,1,1,6-6A6,6,0,0,1,33.65,69.59ZM60,75.6a6,6,0,1,1,6-6A6,6,0,0,1,60,75.6Z"/><path class="cls-3" d="M25.47,77.11a6,6,0,0,0-5,2.62,42.47,42.47,0,0,0,5.69,3.39l5.28,2.18C31.48,77.9,28.79,77.11,25.47,77.11Z"/><circle class="cls-3" cx="60.03" cy="69.6" r="6.01"/><circle class="cls-3" cx="33.65" cy="63.59" r="6.01"/><polyline class="cls-4" points="63.02 26.17 73.09 26.17 73.09 37.5 56.73 37.5 56.73 32.46"/><polyline class="cls-5" points="46.66 21.14 63.02 21.14 63.02 32.46 46.66 32.46"/><path class="cls-6" d="M76.73,73.27,48.14,49.75a1.06,1.06,0,1,0-1.79,1.14L72.84,77.11C73.92,76.18,75.73,74.35,76.73,73.27Z"/><path class="cls-7" d="M46.66,50.73a1,1,0,0,1-1-1V20.22a1,1,0,1,1,1.91,0V49.77A1,1,0,0,1,46.66,50.73Z"/><polygon class="cls-8" points="63.02 32.46 56.73 37.5 56.73 32.46 63.02 32.46"/></g><g id="stars"><circle class="cls-9" cx="37.81" cy="29.94" r="0.52"/><circle class="cls-9" cx="26.17" cy="34.58" r="0.43"/><circle class="cls-9" cx="21.11" cy="24.23" r="0.43"/><circle class="cls-9" cx="32.85" cy="21.24" r="0.33"/><circle class="cls-9" cx="78.87" cy="53" r="0.43"/><circle class="cls-9" cx="13.69" cy="54.98" r="0.33"/><circle class="cls-9" cx="68.27" cy="52.13" r="0.43"/><circle class="cls-9" cx="29.46" cy="12.52" r="0.43"/><circle class="cls-9" cx="25.52" cy="46.94" r="0.43"/><circle class="cls-9" cx="76.21" cy="43.44" r="0.43"/><circle class="cls-9" cx="35.68" cy="42.69" r="0.33"/><circle class="cls-9" cx="58.25" cy="16.28" r="0.33"/><circle class="cls-9" cx="44.85" cy="12.21" r="0.31"/><circle class="cls-9" cx="14.87" cy="40.5" r="0.54"/></g></g></g></svg>