<svg width="25" height="25" viewBox="0 0 25 25" fill="none" xmlns="http://www.w3.org/2000/svg">
<mask id="mask0_88_528" style="mask-type:alpha" maskUnits="userSpaceOnUse" x="0" y="0" width="25" height="25">
<rect x="0.640625" y="0.40625" width="24.0774" height="24.0774" fill="#D9D9D9"/>
</mask>
<g mask="url(#mask0_88_528)">
<path d="M12.6795 20.4709C11.877 19.8355 11.0075 19.3422 10.0711 18.9911C9.1348 18.64 8.16501 18.4644 7.16179 18.4644C6.45953 18.4644 5.76998 18.5564 5.09314 18.7403C4.41562 18.9242 3.76754 19.1834 3.14888 19.5178C2.79775 19.7017 2.45933 19.6934 2.13362 19.4927C1.80723 19.2921 1.64404 18.9995 1.64404 18.6149V6.52603C1.64404 6.3421 1.69019 6.16654 1.78249 5.99933C1.87412 5.83213 2.01189 5.70672 2.19582 5.62312C2.96496 5.22183 3.76754 4.92086 4.60356 4.72022C5.43958 4.51957 6.29232 4.41925 7.16179 4.41925C8.13157 4.41925 9.08063 4.54465 10.0089 4.79546C10.9366 5.04627 11.8268 5.42248 12.6795 5.92409V18.0631C13.5323 17.5281 14.4268 17.1268 15.3632 16.8593C16.2995 16.5917 17.2442 16.458 18.1973 16.458C18.7992 16.458 19.3888 16.5081 19.966 16.6084C20.5425 16.7088 21.1234 16.8593 21.7086 17.0599V5.02119C21.9594 5.10479 22.2062 5.1924 22.4489 5.28403C22.6911 5.37633 22.9292 5.48936 23.1632 5.62312C23.3472 5.70672 23.4853 5.83213 23.5776 5.99933C23.6692 6.16654 23.715 6.3421 23.715 6.52603V18.6149C23.715 18.9995 23.5522 19.2921 23.2264 19.4927C22.9001 19.6934 22.5613 19.7017 22.2102 19.5178C21.5915 19.1834 20.9434 18.9242 20.2659 18.7403C19.5891 18.5564 18.8995 18.4644 18.1973 18.4644C17.194 18.4644 16.2243 18.64 15.2879 18.9911C14.3516 19.3422 13.4821 19.8355 12.6795 20.4709ZM14.686 15.4547V5.92409L19.7021 0.907959V10.9402L14.686 15.4547ZM10.6731 17.085V7.15304C10.1213 6.91896 9.5488 6.73938 8.95556 6.61431C8.36165 6.48857 7.76372 6.4257 7.16179 6.4257C6.54313 6.4257 5.9412 6.48423 5.35598 6.60127C4.77076 6.71831 4.20227 6.89388 3.6505 7.12796V17.085C4.23571 16.8676 4.81691 16.7088 5.3941 16.6084C5.97062 16.5081 6.55985 16.458 7.16179 16.458C7.76372 16.458 8.35295 16.5081 8.92947 16.6084C9.50666 16.7088 10.0879 16.8676 10.6731 17.085Z" fill="white"/>
</g>
</svg>
