<svg width="128" height="508" viewBox="0 0 128 508" fill="none" xmlns="http://www.w3.org/2000/svg">
<path d="M95.3923 444.05C95.3923 426.545 81.2015 412.354 63.6962 412.354C46.1909 412.354 32 426.545 32 444.05C32 461.555 46.1909 475.746 63.6962 475.746C81.2015 475.746 95.3923 461.555 95.3923 444.05Z" stroke="white" stroke-width="63.3923" stroke-linecap="round" stroke-linejoin="round"/>
<path d="M95.3923 253.873C95.3923 236.368 81.2015 222.177 63.6962 222.177C46.1909 222.177 32 236.368 32 253.873C32 271.378 46.1909 285.569 63.6962 285.569C81.2015 285.569 95.3923 271.378 95.3923 253.873Z" stroke="white" stroke-width="63.3923" stroke-linecap="round" stroke-linejoin="round"/>
<path d="M95.3923 63.6962C95.3923 46.1909 81.2015 32 63.6962 32C46.1909 32 32 46.1909 32 63.6962C32 81.2015 46.1909 95.3923 63.6962 95.3923C81.2015 95.3923 95.3923 81.2015 95.3923 63.6962Z" stroke="white" stroke-width="63.3923" stroke-linecap="round" stroke-linejoin="round"/>
</svg>
