<svg width="25" height="25" viewBox="0 0 25 25" fill="none" xmlns="http://www.w3.org/2000/svg">
<mask id="mask0_88_531" style="mask-type:alpha" maskUnits="userSpaceOnUse" x="0" y="0" width="26" height="25">
<rect x="0.922852" width="24.0774" height="24.0774" fill="#D9D9D9"/>
</mask>
<g mask="url(#mask0_88_531)">
<path d="M1.92627 20.0646V17.2555C1.92627 16.687 2.07274 16.1644 2.36568 15.6875C2.65796 15.2113 3.04654 14.8478 3.53143 14.597C4.5681 14.0786 5.62149 13.6897 6.69159 13.4302C7.7617 13.1714 8.84853 13.042 9.95208 13.042C11.0556 13.042 12.1425 13.1714 13.2126 13.4302C14.2827 13.6897 15.3361 14.0786 16.3727 14.597C16.8576 14.8478 17.2462 15.2113 17.5385 15.6875C17.8314 16.1644 17.9779 16.687 17.9779 17.2555V20.0646H1.92627ZM19.9843 20.0646V17.0549C19.9843 16.3192 19.7797 15.6126 19.3704 14.9351C18.9604 14.2582 18.3792 13.6774 17.6268 13.1925C18.4795 13.2928 19.2821 13.464 20.0345 13.7061C20.7869 13.9489 21.4892 14.2458 22.1413 14.597C22.7432 14.9314 23.203 15.3032 23.5207 15.7126C23.8384 16.1225 23.9972 16.57 23.9972 17.0549V20.0646H19.9843ZM9.95208 12.0387C8.84853 12.0387 7.90383 11.6458 7.11797 10.86C6.33211 10.0741 5.93917 9.12939 5.93917 8.02584C5.93917 6.9223 6.33211 5.97759 7.11797 5.19173C7.90383 4.40587 8.84853 4.01294 9.95208 4.01294C11.0556 4.01294 12.0003 4.40587 12.7862 5.19173C13.5721 5.97759 13.965 6.9223 13.965 8.02584C13.965 9.12939 13.5721 10.0741 12.7862 10.86C12.0003 11.6458 11.0556 12.0387 9.95208 12.0387ZM15.9714 12.0387C15.7875 12.0387 15.5534 12.018 15.2692 11.9765C14.9849 11.9344 14.7508 11.8883 14.5669 11.8381C15.0184 11.3031 15.3652 10.7095 15.6073 10.0574C15.85 9.40528 15.9714 8.7281 15.9714 8.02584C15.9714 7.32359 15.85 6.64641 15.6073 5.99431C15.3652 5.34221 15.0184 4.74864 14.5669 4.21358C14.801 4.12998 15.0351 4.07547 15.2692 4.05006C15.5033 4.02531 15.7374 4.01294 15.9714 4.01294C17.075 4.01294 18.0197 4.40587 18.8056 5.19173C19.5914 5.97759 19.9843 6.9223 19.9843 8.02584C19.9843 9.12939 19.5914 10.0741 18.8056 10.86C18.0197 11.6458 17.075 12.0387 15.9714 12.0387ZM3.93272 18.0581H15.9714V17.2555C15.9714 17.0716 15.9256 16.9044 15.834 16.7539C15.7417 16.6034 15.6203 16.4864 15.4698 16.4028C14.5669 15.9513 13.6557 15.6126 12.736 15.3865C11.8164 15.1611 10.8884 15.0484 9.95208 15.0484C9.01574 15.0484 8.08775 15.1611 7.16813 15.3865C6.2485 15.6126 5.33724 15.9513 4.43434 16.4028C4.28385 16.4864 4.1628 16.6034 4.07117 16.7539C3.97887 16.9044 3.93272 17.0716 3.93272 17.2555V18.0581ZM9.95208 10.0323C10.5039 10.0323 10.9764 9.83566 11.3696 9.4424C11.7622 9.0498 11.9585 8.57762 11.9585 8.02584C11.9585 7.47407 11.7622 7.00188 11.3696 6.60929C10.9764 6.21602 10.5039 6.01939 9.95208 6.01939C9.40031 6.01939 8.92812 6.21602 8.53552 6.60929C8.14226 7.00188 7.94563 7.47407 7.94563 8.02584C7.94563 8.57762 8.14226 9.0498 8.53552 9.4424C8.92812 9.83566 9.40031 10.0323 9.95208 10.0323Z" fill="white"/>
</g>
</svg>
