<svg width="13" height="13" viewBox="0 0 13 13" fill="none" xmlns="http://www.w3.org/2000/svg">
<path d="M6.17245 0C2.76896 0 0 2.76896 0 6.17245C0 9.57594 2.76896 12.3449 6.17245 12.3449C9.57594 12.3449 12.3449 9.57594 12.3449 6.17245C12.3449 2.76896 9.57594 0 6.17245 0ZM6.17245 11.1104C3.44978 11.1104 1.23449 8.89512 1.23449 6.17245C1.23449 3.44978 3.44978 1.23449 6.17245 1.23449C8.89512 1.23449 11.1104 3.44978 11.1104 6.17245C11.1104 8.89512 8.89512 11.1104 6.17245 11.1104Z" fill="#F5F5F5"/>
<path d="M5.55518 5.55519H6.78967V9.25867H5.55518V5.55519ZM5.55518 3.08621H6.78967V4.3207H5.55518V3.08621Z" fill="#F5F5F5"/>
</svg>
