<svg width="21" height="20" viewBox="0 0 21 20" fill="none" xmlns="http://www.w3.org/2000/svg">
<path opacity="0.5" d="M10.5002 2.5C10.9604 2.5 11.3335 2.8731 11.3335 3.33333C11.3335 3.76069 11.0118 4.11292 10.5973 4.16106L10.5002 4.16667H6.3335C5.90614 4.16667 5.55391 4.48837 5.50577 4.90282L5.50016 5V15C5.50016 15.4274 5.82187 15.7796 6.23631 15.8277L6.3335 15.8333H10.0835C10.5437 15.8333 10.9168 16.2064 10.9168 16.6667C10.9168 17.094 10.5951 17.4463 10.1807 17.4944L10.0835 17.5H6.3335C5.0021 17.5 3.91378 16.4593 3.83774 15.1469L3.8335 15V5C3.8335 3.6686 4.87427 2.58028 6.1866 2.50424L6.3335 2.5H10.5002ZM15.256 7.05372L17.6131 9.41075C17.9385 9.73617 17.9385 10.2638 17.6131 10.5892L15.256 12.9462C14.9306 13.2717 14.403 13.2717 14.0775 12.9462C13.7521 12.6208 13.7521 12.0932 14.0775 11.7677L15.012 10.8333H10.5002C10.0399 10.8333 9.66683 10.4602 9.66683 10C9.66683 9.53975 10.0399 9.16667 10.5002 9.16667H15.012L14.0775 8.23223C13.7521 7.9068 13.7521 7.37916 14.0775 7.05372C14.403 6.72828 14.9306 6.72828 15.256 7.05372Z" fill="white"/>
</svg>
