<svg width="25" height="25" viewBox="0 0 25 25" fill="none" xmlns="http://www.w3.org/2000/svg">
<mask id="mask0_88_525" style="mask-type:alpha" maskUnits="userSpaceOnUse" x="0" y="0" width="25" height="25">
<rect x="0.281738" y="0.40625" width="24.0774" height="24.0774" fill="#D9D9D9"/>
</mask>
<g mask="url(#mask0_88_525)">
<path d="M10.3139 12.445C9.21035 12.445 8.26564 12.0521 7.47978 11.2662C6.69392 10.4803 6.30099 9.53564 6.30099 8.43209C6.30099 7.32855 6.69392 6.38384 7.47978 5.59798C8.26564 4.81212 9.21035 4.41919 10.3139 4.41919C11.4174 4.41919 12.3621 4.81212 13.148 5.59798C13.9339 6.38384 14.3268 7.32855 14.3268 8.43209C14.3268 9.53564 13.9339 10.4803 13.148 11.2662C12.3621 12.0521 11.4174 12.445 10.3139 12.445ZM2.28809 20.4708V17.6618C2.28809 17.11 2.43021 16.5917 2.71446 16.1068C2.9987 15.6219 3.39163 15.254 3.89325 15.0032C4.74599 14.5685 5.70742 14.2006 6.77752 13.8997C7.84763 13.5987 9.02642 13.4482 10.3139 13.4482H10.665C10.7653 13.4482 10.8657 13.4649 10.966 13.4984C10.8322 13.7994 10.7192 14.113 10.6269 14.4394C10.5353 14.7651 10.4644 15.1035 10.4142 15.4547H10.3139C9.12675 15.4547 8.06065 15.6052 7.11561 15.9061C6.17124 16.2071 5.39809 16.5081 4.79615 16.809C4.64567 16.8926 4.52461 17.0097 4.43298 17.1602C4.34069 17.3106 4.29454 17.4779 4.29454 17.6618V18.4644H10.6149C10.7152 18.8155 10.849 19.1626 11.0162 19.5057C11.1834 19.8481 11.3673 20.1698 11.5679 20.4708H2.28809ZM16.3333 21.474L16.0323 19.9692C15.8316 19.8856 15.6434 19.798 15.4675 19.7064C15.2922 19.6141 15.1127 19.501 14.9287 19.3673L13.4741 19.8187L12.4708 18.1132L13.6245 17.11C13.5911 16.8759 13.5744 16.6586 13.5744 16.4579C13.5744 16.2573 13.5911 16.0399 13.6245 15.8058L12.4708 14.8026L13.4741 13.0971L14.9287 13.5485C15.1127 13.4148 15.2922 13.3018 15.4675 13.2095C15.6434 13.1178 15.8316 13.0302 16.0323 12.9466L16.3333 11.4418H18.3397L18.6407 12.9466C18.8413 13.0302 19.0296 13.1222 19.2055 13.2225C19.3807 13.3228 19.5603 13.4482 19.7442 13.5987L21.1989 13.0971L22.2021 14.8527L21.0484 15.856C21.0819 16.0566 21.0986 16.2656 21.0986 16.483C21.0986 16.7004 21.0819 16.9094 21.0484 17.11L22.2021 18.1132L21.1989 19.8187L19.7442 19.3673C19.5603 19.501 19.3807 19.6141 19.2055 19.7064C19.0296 19.798 18.8413 19.8856 18.6407 19.9692L18.3397 21.474H16.3333ZM17.3365 18.4644C17.8883 18.4644 18.3608 18.2681 18.754 17.8755C19.1466 17.4822 19.3429 17.0097 19.3429 16.4579C19.3429 15.9061 19.1466 15.4336 18.754 15.0403C18.3608 14.6477 17.8883 14.4515 17.3365 14.4515C16.7847 14.4515 16.3125 14.6477 15.9199 15.0403C15.5267 15.4336 15.33 15.9061 15.33 16.4579C15.33 17.0097 15.5267 17.4822 15.9199 17.8755C16.3125 18.2681 16.7847 18.4644 17.3365 18.4644ZM10.3139 10.4385C10.8657 10.4385 11.3382 10.2419 11.7315 9.84865C12.1241 9.45605 12.3203 8.98387 12.3203 8.43209C12.3203 7.88032 12.1241 7.40813 11.7315 7.01554C11.3382 6.62227 10.8657 6.42564 10.3139 6.42564C9.76212 6.42564 9.28994 6.62227 8.89734 7.01554C8.50408 7.40813 8.30744 7.88032 8.30744 8.43209C8.30744 8.98387 8.50408 9.45605 8.89734 9.84865C9.28994 10.2419 9.76212 10.4385 10.3139 10.4385Z" fill="white"/>
</g>
</svg>
