<svg width="25" height="25" viewBox="0 0 25 25" fill="none" xmlns="http://www.w3.org/2000/svg">
<mask id="mask0_88_534" style="mask-type:alpha" maskUnits="userSpaceOnUse" x="0" y="0" width="25" height="25">
<rect y="0.139648" width="24.0774" height="24.0774" fill="#D9D9D9"/>
</mask>
<g mask="url(#mask0_88_534)">
<path d="M18.0583 14.1849V11.1752H15.0486V9.16872H18.0583V6.15904H20.0647V9.16872H23.0744V11.1752H20.0647V14.1849H18.0583ZM9.02923 12.1784C7.92568 12.1784 6.98097 11.7855 6.19511 10.9996C5.40925 10.2137 5.01632 9.26904 5.01632 8.16549C5.01632 7.06194 5.40925 6.11724 6.19511 5.33138C6.98097 4.54552 7.92568 4.15259 9.02923 4.15259C10.1328 4.15259 11.0775 4.54552 11.8633 5.33138C12.6492 6.11724 13.0421 7.06194 13.0421 8.16549C13.0421 9.26904 12.6492 10.2137 11.8633 10.9996C11.0775 11.7855 10.1328 12.1784 9.02923 12.1784ZM1.00342 20.2042V17.3952C1.00342 16.8267 1.14989 16.304 1.44283 15.8271C1.7351 15.3509 2.12369 14.9874 2.60858 14.7366C3.64525 14.2183 4.69863 13.8294 5.76874 13.5699C6.83885 13.311 7.92568 13.1816 9.02923 13.1816C10.1328 13.1816 11.2196 13.311 12.2897 13.5699C13.3598 13.8294 14.4132 14.2183 15.4499 14.7366C15.9348 14.9874 16.3234 15.3509 16.6156 15.8271C16.9086 16.304 17.055 16.8267 17.055 17.3952V20.2042H1.00342ZM3.00987 18.1978H15.0486V17.3952C15.0486 17.2113 15.0028 17.044 14.9111 16.8936C14.8188 16.7431 14.6975 16.626 14.547 16.5424C13.6441 16.091 12.7328 15.7522 11.8132 15.5262C10.8936 15.3008 9.96557 15.1881 9.02923 15.1881C8.09288 15.1881 7.1649 15.3008 6.24528 15.5262C5.32565 15.7522 4.41439 16.091 3.51148 16.5424C3.361 16.626 3.23994 16.7431 3.14832 16.8936C3.05602 17.044 3.00987 17.2113 3.00987 17.3952V18.1978ZM9.02923 10.1719C9.581 10.1719 10.0535 9.97531 10.4468 9.58205C10.8394 9.18945 11.0357 8.71727 11.0357 8.16549C11.0357 7.61372 10.8394 7.14153 10.4468 6.74894C10.0535 6.35567 9.581 6.15904 9.02923 6.15904C8.47745 6.15904 8.00527 6.35567 7.61267 6.74894C7.21941 7.14153 7.02278 7.61372 7.02278 8.16549C7.02278 8.71727 7.21941 9.18945 7.61267 9.58205C8.00527 9.97531 8.47745 10.1719 9.02923 10.1719Z" fill="white"/>
</g>
</svg>
